<?xml version="1.0" encoding="UTF-8" standalone="no"?>
<!DOCTYPE svg PUBLIC "-//W3C//DTD SVG 1.1//EN"
 "http://www.w3.org/Graphics/SVG/1.1/DTD/svg11.dtd">
<!-- Generated by graphviz version 2.40.1 (20161225.0304)
 -->
<!-- Title: dependencies Pages: 1 -->
<svg width="2524pt" height="436pt"
 viewBox="0.00 0.00 2524.00 436.00" xmlns="http://www.w3.org/2000/svg" xmlns:xlink="http://www.w3.org/1999/xlink">
<g id="graph0" class="graph" transform="scale(1 1) rotate(0) translate(4 432)">
<title>dependencies</title>
<polygon fill="#ffffff" stroke="transparent" points="-4,4 -4,-432 2520,-432 2520,4 -4,4"/>
<text text-anchor="start" x="1237.0091" y="-42.4" font-family="sans-serif" font-weight="bold" font-size="14.00" fill="#000000">Legend</text>
<polygon fill="#ffffb3" stroke="transparent" points="1024,-10 1024,-30 1044,-30 1044,-10 1024,-10"/>
<text text-anchor="start" x="1047.629" y="-15.4" font-family="sans-serif" font-size="14.00" fill="#000000"> &#160;Declarations</text>
<polygon fill="#8dd3c7" stroke="transparent" points="1137,-10 1137,-30 1157,-30 1157,-10 1137,-10"/>
<text text-anchor="start" x="1160.7251" y="-15.4" font-family="sans-serif" font-size="14.00" fill="#000000"> &#160;Module</text>
<polygon fill="#80b1d3" stroke="transparent" points="1223,-10 1223,-30 1243,-30 1243,-10 1223,-10"/>
<text text-anchor="start" x="1246.7812" y="-15.4" font-family="sans-serif" font-size="14.00" fill="#000000"> &#160;Bootstrap</text>
<polygon fill="#fdb462" stroke="transparent" points="1320,-10 1320,-30 1340,-30 1340,-10 1320,-10"/>
<text text-anchor="start" x="1343.6732" y="-15.4" font-family="sans-serif" font-size="14.00" fill="#000000"> &#160;Providers</text>
<polygon fill="#fb8072" stroke="transparent" points="1416,-10 1416,-30 1436,-30 1436,-10 1416,-10"/>
<text text-anchor="start" x="1439.7258" y="-15.4" font-family="sans-serif" font-size="14.00" fill="#000000"> &#160;Exports</text>
<g id="clust1" class="cluster">
<title>cluster_AlwayspresentModule</title>
<polygon fill="none" stroke="#000000" stroke-dasharray="1,5" points="8,-70 8,-290 474,-290 474,-70 8,-70"/>
</g>
<g id="clust2" class="cluster">
<title>cluster_AlwayspresentModule_declarations</title>
<polygon fill="none" stroke="#000000" points="16,-78 16,-130 290,-130 290,-78 16,-78"/>
</g>
<g id="clust5" class="cluster">
<title>cluster_AlwayspresentModule_imports</title>
<polygon fill="none" stroke="#000000" points="298,-78 298,-130 466,-130 466,-78 298,-78"/>
</g>
<g id="clust6" class="cluster">
<title>cluster_AlwayspresentModule_exports</title>
<polygon fill="none" stroke="#000000" points="168,-230 168,-282 450,-282 450,-230 168,-230"/>
</g>
<g id="clust15" class="cluster">
<title>cluster_AppModule</title>
<polygon fill="none" stroke="#000000" stroke-dasharray="1,5" points="482,-222 482,-420 2316,-420 2316,-222 482,-222"/>
</g>
<g id="clust16" class="cluster">
<title>cluster_AppModule_declarations</title>
<polygon fill="none" stroke="#000000" points="1614,-230 1614,-282 2308,-282 2308,-230 1614,-230"/>
</g>
<g id="clust22" class="cluster">
<title>cluster_AppModule_imports</title>
<polygon fill="none" stroke="#000000" points="1504,-230 1504,-282 1606,-282 1606,-230 1504,-230"/>
</g>
<g id="clust24" class="cluster">
<title>cluster_AppModule_bootstrap</title>
<polygon fill="none" stroke="#000000" points="1273,-360 1273,-412 1397,-412 1397,-360 1273,-360"/>
</g>
<g id="clust25" class="cluster">
<title>cluster_AppModule_providers</title>
<polygon fill="none" stroke="#000000" points="490,-230 490,-282 1496,-282 1496,-230 490,-230"/>
</g>
<g id="clust26" class="cluster">
<title>cluster_ComparatorModule</title>
<polygon fill="none" stroke="#000000" stroke-dasharray="1,5" points="2324,-70 2324,-290 2508,-290 2508,-70 2324,-70"/>
</g>
<g id="clust27" class="cluster">
<title>cluster_ComparatorModule_declarations</title>
<polygon fill="none" stroke="#000000" points="2332,-78 2332,-130 2496,-130 2496,-78 2332,-78"/>
</g>
<g id="clust30" class="cluster">
<title>cluster_ComparatorModule_exports</title>
<polygon fill="none" stroke="#000000" points="2332,-230 2332,-282 2500,-282 2500,-230 2332,-230"/>
</g>
<g id="clust33" class="cluster">
<title>cluster_CoreModule</title>
<polygon fill="none" stroke="#000000" stroke-dasharray="1,5" points="985,-146 985,-214 1973,-214 1973,-146 985,-146"/>
</g>
<g id="clust34" class="cluster">
<title>cluster_CoreModule_declarations</title>
<polygon fill="none" stroke="#000000" points="1261,-154 1261,-206 1965,-206 1965,-154 1261,-154"/>
</g>
<g id="clust39" class="cluster">
<title>cluster_CoreModule_imports</title>
<polygon fill="none" stroke="#000000" points="1129,-154 1129,-206 1253,-206 1253,-154 1129,-154"/>
</g>
<g id="clust40" class="cluster">
<title>cluster_CoreModule_exports</title>
<polygon fill="none" stroke="#000000" points="993,-154 993,-206 1121,-206 1121,-154 993,-154"/>
</g>
<g id="clust43" class="cluster">
<title>cluster_ExplorerModule</title>
<polygon fill="none" stroke="#000000" stroke-dasharray="1,5" points="938,-70 938,-138 1434,-138 1434,-70 938,-70"/>
</g>
<g id="clust44" class="cluster">
<title>cluster_ExplorerModule_declarations</title>
<polygon fill="none" stroke="#000000" points="1104,-78 1104,-130 1426,-130 1426,-78 1104,-78"/>
</g>
<g id="clust48" class="cluster">
<title>cluster_ExplorerModule_exports</title>
<polygon fill="none" stroke="#000000" points="946,-78 946,-130 1096,-130 1096,-78 946,-78"/>
</g>
<!-- NavbarComponent -->
<g id="node1" class="node">
<title>NavbarComponent</title>
<polygon fill="#ffffb3" stroke="#000000" points="282.0297,-122 159.9703,-122 159.9703,-86 282.0297,-86 282.0297,-122"/>
<text text-anchor="middle" x="221" y="-99.8" font-family="Times,serif" font-size="14.00" fill="#000000">NavbarComponent</text>
</g>
<!-- AlwayspresentModule -->
<g id="node3" class="node">
<title>AlwayspresentModule</title>
<polygon fill="#8dd3c7" stroke="#000000" points="450.238,-198 447.238,-202 426.238,-202 423.238,-198 307.762,-198 307.762,-162 450.238,-162 450.238,-198"/>
<text text-anchor="middle" x="379" y="-175.8" font-family="Times,serif" font-size="14.00" fill="#000000">AlwayspresentModule</text>
</g>
<!-- NavbarComponent&#45;&gt;AlwayspresentModule -->
<g id="edge1" class="edge">
<title>NavbarComponent&#45;&gt;AlwayspresentModule</title>
<path fill="none" stroke="#000000" d="M229.287,-122.0267C229.287,-142.7672 229.287,-174 229.287,-174 229.287,-174 297.6513,-174 297.6513,-174"/>
<polygon fill="#000000" stroke="#000000" points="297.6513,-177.5001 307.6513,-174 297.6512,-170.5001 297.6513,-177.5001"/>
</g>
<!-- FooterComponent -->
<g id="node2" class="node">
<title>FooterComponent</title>
<polygon fill="#ffffb3" stroke="#000000" points="141.8809,-122 24.1191,-122 24.1191,-86 141.8809,-86 141.8809,-122"/>
<text text-anchor="middle" x="83" y="-99.8" font-family="Times,serif" font-size="14.00" fill="#000000">FooterComponent</text>
</g>
<!-- FooterComponent&#45;&gt;AlwayspresentModule -->
<g id="edge2" class="edge">
<title>FooterComponent&#45;&gt;AlwayspresentModule</title>
<path fill="none" stroke="#000000" d="M83,-122.1985C83,-146.3563 83,-186 83,-186 83,-186 297.7239,-186 297.7239,-186"/>
<polygon fill="#000000" stroke="#000000" points="297.724,-189.5001 307.7239,-186 297.7239,-182.5001 297.724,-189.5001"/>
</g>
<!-- NavbarComponent  -->
<g id="node5" class="node">
<title>NavbarComponent </title>
<polygon fill="#fb8072" stroke="#000000" points="442.0288,-274 315.9712,-274 315.9712,-238 442.0288,-238 442.0288,-274"/>
<text text-anchor="middle" x="379" y="-251.8" font-family="Times,serif" font-size="14.00" fill="#000000">NavbarComponent </text>
</g>
<!-- AlwayspresentModule&#45;&gt;NavbarComponent  -->
<g id="edge4" class="edge">
<title>AlwayspresentModule&#45;&gt;NavbarComponent </title>
<path fill="none" stroke="#000000" stroke-dasharray="5,2" d="M379,-198.0109C379,-198.0109 379,-227.855 379,-227.855"/>
<polygon fill="#000000" stroke="#000000" points="375.5001,-227.8549 379,-237.855 382.5001,-227.855 375.5001,-227.8549"/>
</g>
<!-- FooterComponent  -->
<g id="node6" class="node">
<title>FooterComponent </title>
<polygon fill="#fb8072" stroke="#000000" points="297.8814,-274 176.1186,-274 176.1186,-238 297.8814,-238 297.8814,-274"/>
<text text-anchor="middle" x="237" y="-251.8" font-family="Times,serif" font-size="14.00" fill="#000000">FooterComponent </text>
</g>
<!-- AlwayspresentModule&#45;&gt;FooterComponent  -->
<g id="edge5" class="edge">
<title>AlwayspresentModule&#45;&gt;FooterComponent </title>
<path fill="none" stroke="#000000" stroke-dasharray="5,2" d="M311.8084,-198.0109C311.8084,-220.4852 311.8084,-256 311.8084,-256 311.8084,-256 307.7375,-256 307.7375,-256"/>
<polygon fill="#000000" stroke="#000000" points="307.7375,-252.5001 297.7375,-256 307.7374,-259.5001 307.7375,-252.5001"/>
</g>
<!-- AppModule -->
<g id="node12" class="node">
<title>AppModule</title>
<polygon fill="#8dd3c7" stroke="#000000" points="1376.6571,-339 1373.6571,-343 1352.6571,-343 1349.6571,-339 1293.3429,-339 1293.3429,-303 1376.6571,-303 1376.6571,-339"/>
<text text-anchor="middle" x="1335" y="-316.8" font-family="Times,serif" font-size="14.00" fill="#000000">AppModule</text>
</g>
<!-- AlwayspresentModule&#45;&gt;AppModule -->
<g id="edge13" class="edge">
<title>AlwayspresentModule&#45;&gt;AppModule</title>
<path fill="none" stroke="#000000" d="M447.5841,-198.2706C447.5841,-239.0636 447.5841,-334 447.5841,-334 447.5841,-334 1283.0922,-334 1283.0922,-334"/>
<polygon fill="#000000" stroke="#000000" points="1283.0922,-337.5001 1293.0922,-334 1283.0921,-330.5001 1283.0922,-337.5001"/>
</g>
<!-- CoreModule -->
<g id="node13" class="node">
<title>CoreModule</title>
<polygon fill="#8dd3c7" stroke="#000000" points="1598.2619,-274 1595.2619,-278 1574.2619,-278 1571.2619,-274 1511.7381,-274 1511.7381,-238 1598.2619,-238 1598.2619,-274"/>
<text text-anchor="middle" x="1555" y="-251.8" font-family="Times,serif" font-size="14.00" fill="#000000">CoreModule</text>
</g>
<!-- AlwayspresentModule&#45;&gt;CoreModule -->
<g id="edge31" class="edge">
<title>AlwayspresentModule&#45;&gt;CoreModule</title>
<path fill="none" stroke="#000000" d="M444.7992,-198.1025C444.7992,-209.0859 444.7992,-221 444.7992,-221 444.7992,-221 1520.2954,-221 1520.2954,-221 1520.2954,-221 1520.2954,-227.68 1520.2954,-227.68"/>
<polygon fill="#000000" stroke="#000000" points="1516.7955,-227.6799 1520.2954,-237.68 1523.7955,-227.68 1516.7955,-227.6799"/>
</g>
<!-- AngularMaterialModule -->
<g id="node4" class="node">
<title>AngularMaterialModule</title>
<polygon fill="#8dd3c7" stroke="#000000" points="458.3431,-122 455.3431,-126 434.3431,-126 431.3431,-122 305.6569,-122 305.6569,-86 458.3431,-86 458.3431,-122"/>
<text text-anchor="middle" x="382" y="-99.8" font-family="Times,serif" font-size="14.00" fill="#000000">AngularMaterialModule</text>
</g>
<!-- AngularMaterialModule&#45;&gt;AlwayspresentModule -->
<g id="edge3" class="edge">
<title>AngularMaterialModule&#45;&gt;AlwayspresentModule</title>
<path fill="none" stroke="#000000" d="M355.2104,-122.0109C355.2104,-122.0109 355.2104,-151.855 355.2104,-151.855"/>
<polygon fill="#000000" stroke="#000000" points="351.7105,-151.8549 355.2104,-161.855 358.7105,-151.855 351.7105,-151.8549"/>
</g>
<!-- AngularMaterialModule&#45;&gt;AppModule -->
<g id="edge11" class="edge">
<title>AngularMaterialModule&#45;&gt;AppModule</title>
<path fill="none" stroke="#000000" d="M452.3821,-122.0324C452.3821,-175.424 452.3821,-329 452.382,-329 452.382,-329 1283.3188,-329 1283.3188,-329"/>
<polygon fill="#000000" stroke="#000000" points="1283.3188,-332.5001 1293.3188,-329 1283.3187,-325.5001 1283.3188,-332.5001"/>
</g>
<!-- AngularMaterialModule&#45;&gt;CoreModule -->
<g id="edge28" class="edge">
<title>AngularMaterialModule&#45;&gt;CoreModule</title>
<path fill="none" stroke="#000000" d="M454.3952,-122.4945C454.3952,-154.3057 454.3952,-216 454.3952,-216 454.3952,-216 1528.9715,-216 1528.9715,-216 1528.9715,-216 1528.9715,-227.8726 1528.9715,-227.8726"/>
<polygon fill="#000000" stroke="#000000" points="1525.4716,-227.8725 1528.9715,-237.8726 1532.4716,-227.8726 1525.4716,-227.8725"/>
</g>
<!-- ComparatorModule -->
<g id="node22" class="node">
<title>ComparatorModule</title>
<polygon fill="#8dd3c7" stroke="#000000" points="2467.4187,-198 2464.4187,-202 2443.4187,-202 2440.4187,-198 2340.5813,-198 2340.5813,-162 2467.4187,-162 2467.4187,-198"/>
<text text-anchor="middle" x="2404" y="-175.8" font-family="Times,serif" font-size="14.00" fill="#000000">ComparatorModule</text>
</g>
<!-- AngularMaterialModule&#45;&gt;ComparatorModule -->
<g id="edge22" class="edge">
<title>AngularMaterialModule&#45;&gt;ComparatorModule</title>
<path fill="none" stroke="#000000" d="M402.7896,-122.0579C402.7896,-126.4945 402.7896,-130 402.7896,-130 402.7896,-130 2382.9303,-130 2382.9303,-130 2382.9303,-130 2382.9303,-151.9489 2382.9303,-151.9489"/>
<polygon fill="#000000" stroke="#000000" points="2379.4304,-151.9488 2382.9303,-161.9489 2386.4304,-151.9489 2379.4304,-151.9488"/>
</g>
<!-- ExplorerModule -->
<g id="node28" class="node">
<title>ExplorerModule</title>
<polygon fill="#8dd3c7" stroke="#000000" points="1245.0298,-198 1242.0298,-202 1221.0298,-202 1218.0298,-198 1136.9702,-198 1136.9702,-162 1245.0298,-162 1245.0298,-198"/>
<text text-anchor="middle" x="1191" y="-175.8" font-family="Times,serif" font-size="14.00" fill="#000000">ExplorerModule</text>
</g>
<!-- AngularMaterialModule&#45;&gt;ExplorerModule -->
<g id="edge35" class="edge">
<title>AngularMaterialModule&#45;&gt;ExplorerModule</title>
<path fill="none" stroke="#000000" d="M456.4084,-122.0555C456.4084,-133.439 456.4084,-146 456.4084,-146 456.4084,-146 1158.4414,-146 1158.4414,-146 1158.4414,-146 1158.4414,-151.8056 1158.4414,-151.8056"/>
<polygon fill="#000000" stroke="#000000" points="1154.9415,-151.8055 1158.4414,-161.8056 1161.9415,-151.8056 1154.9415,-151.8055"/>
</g>
<!-- AppComponent -->
<g id="node7" class="node">
<title>AppComponent</title>
<polygon fill="#ffffb3" stroke="#000000" points="1727.9399,-274 1622.0601,-274 1622.0601,-238 1727.9399,-238 1727.9399,-274"/>
<text text-anchor="middle" x="1675" y="-251.8" font-family="Times,serif" font-size="14.00" fill="#000000">AppComponent</text>
</g>
<!-- AppComponent&#45;&gt;AppModule -->
<g id="edge6" class="edge">
<title>AppComponent&#45;&gt;AppModule</title>
<path fill="none" stroke="#000000" d="M1675,-274.0336C1675,-291.0597 1675,-314 1675,-314 1675,-314 1386.6907,-314 1386.6907,-314"/>
<polygon fill="#000000" stroke="#000000" points="1386.6907,-310.5001 1376.6907,-314 1386.6906,-317.5001 1386.6907,-310.5001"/>
</g>
<!-- CourseComponent -->
<g id="node8" class="node">
<title>CourseComponent</title>
<polygon fill="#ffffb3" stroke="#000000" points="2300.4888,-274 2179.5112,-274 2179.5112,-238 2300.4888,-238 2300.4888,-274"/>
<text text-anchor="middle" x="2240" y="-251.8" font-family="Times,serif" font-size="14.00" fill="#000000">CourseComponent</text>
</g>
<!-- CourseComponent&#45;&gt;AppModule -->
<g id="edge7" class="edge">
<title>CourseComponent&#45;&gt;AppModule</title>
<path fill="none" stroke="#000000" d="M2240,-274.0908C2240,-297.1328 2240,-334 2240,-334 2240,-334 1386.835,-334 1386.835,-334"/>
<polygon fill="#000000" stroke="#000000" points="1386.835,-330.5001 1376.835,-334 1386.835,-337.5001 1386.835,-330.5001"/>
</g>
<!-- NotFoundComponent -->
<g id="node9" class="node">
<title>NotFoundComponent</title>
<polygon fill="#ffffb3" stroke="#000000" points="2161.1122,-274 2022.8878,-274 2022.8878,-238 2161.1122,-238 2161.1122,-274"/>
<text text-anchor="middle" x="2092" y="-251.8" font-family="Times,serif" font-size="14.00" fill="#000000">NotFoundComponent</text>
</g>
<!-- NotFoundComponent&#45;&gt;AppModule -->
<g id="edge8" class="edge">
<title>NotFoundComponent&#45;&gt;AppModule</title>
<path fill="none" stroke="#000000" d="M2092,-274.0449C2092,-295.6623 2092,-329 2092,-329 2092,-329 1386.7779,-329 1386.7779,-329"/>
<polygon fill="#000000" stroke="#000000" points="1386.7779,-325.5001 1376.7779,-329 1386.7779,-332.5001 1386.7779,-325.5001"/>
</g>
<!-- AboutComponent -->
<g id="node10" class="node">
<title>AboutComponent</title>
<polygon fill="#ffffb3" stroke="#000000" points="2005.3301,-274 1888.6699,-274 1888.6699,-238 2005.3301,-238 2005.3301,-274"/>
<text text-anchor="middle" x="1947" y="-251.8" font-family="Times,serif" font-size="14.00" fill="#000000">AboutComponent</text>
</g>
<!-- AboutComponent&#45;&gt;AppModule -->
<g id="edge9" class="edge">
<title>AboutComponent&#45;&gt;AppModule</title>
<path fill="none" stroke="#000000" d="M1947,-274.2228C1947,-294.3652 1947,-324 1947,-324 1947,-324 1387.0652,-324 1387.0652,-324"/>
<polygon fill="#000000" stroke="#000000" points="1387.0653,-320.5001 1377.0652,-324 1387.0652,-327.5001 1387.0653,-320.5001"/>
</g>
<!-- ContactComponent -->
<g id="node11" class="node">
<title>ContactComponent</title>
<polygon fill="#ffffb3" stroke="#000000" points="1870.3795,-274 1745.6205,-274 1745.6205,-238 1870.3795,-238 1870.3795,-274"/>
<text text-anchor="middle" x="1808" y="-251.8" font-family="Times,serif" font-size="14.00" fill="#000000">ContactComponent</text>
</g>
<!-- ContactComponent&#45;&gt;AppModule -->
<g id="edge10" class="edge">
<title>ContactComponent&#45;&gt;AppModule</title>
<path fill="none" stroke="#000000" d="M1808,-274.2222C1808,-292.8285 1808,-319 1808,-319 1808,-319 1386.9756,-319 1386.9756,-319"/>
<polygon fill="#000000" stroke="#000000" points="1386.9756,-315.5001 1376.9756,-319 1386.9756,-322.5001 1386.9756,-315.5001"/>
</g>
<!-- AppComponent  -->
<g id="node14" class="node">
<title>AppComponent </title>
<polygon fill="#80b1d3" stroke="#000000" points="1389.439,-404 1280.561,-404 1280.561,-368 1389.439,-368 1389.439,-404"/>
<text text-anchor="middle" x="1335" y="-381.8" font-family="Times,serif" font-size="14.00" fill="#000000">AppComponent </text>
</g>
<!-- AppModule&#45;&gt;AppComponent  -->
<g id="edge14" class="edge">
<title>AppModule&#45;&gt;AppComponent </title>
<path fill="none" stroke="#000000" stroke-dasharray="1,5" d="M1335,-339.1061C1335,-339.1061 1335,-357.991 1335,-357.991"/>
<polygon fill="#000000" stroke="#000000" points="1331.5001,-357.9909 1335,-367.991 1338.5001,-357.991 1331.5001,-357.9909"/>
</g>
<!-- CoreModule&#45;&gt;AppModule -->
<g id="edge12" class="edge">
<title>CoreModule&#45;&gt;AppModule</title>
<path fill="none" stroke="#000000" d="M1555,-274.2396C1555,-289.5706 1555,-309 1555,-309 1555,-309 1386.8982,-309 1386.8982,-309"/>
<polygon fill="#000000" stroke="#000000" points="1386.8982,-305.5001 1376.8982,-309 1386.8981,-312.5001 1386.8982,-305.5001"/>
</g>
<!-- CoreComponent  -->
<g id="node29" class="node">
<title>CoreComponent </title>
<polygon fill="#fb8072" stroke="#000000" points="1113.0442,-198 1000.9558,-198 1000.9558,-162 1113.0442,-162 1113.0442,-198"/>
<text text-anchor="middle" x="1057" y="-175.8" font-family="Times,serif" font-size="14.00" fill="#000000">CoreComponent </text>
</g>
<!-- CoreModule&#45;&gt;CoreComponent  -->
<g id="edge32" class="edge">
<title>CoreModule&#45;&gt;CoreComponent </title>
<path fill="none" stroke="#000000" stroke-dasharray="5,2" d="M1537.6477,-237.8495C1537.6477,-225.7292 1537.6477,-212 1537.6477,-212 1537.6477,-212 1059.5105,-212 1059.5105,-212 1059.5105,-212 1059.5105,-208.2434 1059.5105,-208.2434"/>
<polygon fill="#000000" stroke="#000000" points="1063.0106,-208.2434 1059.5105,-198.2434 1056.0106,-208.2434 1063.0106,-208.2434"/>
</g>
<!-- CountriesService -->
<g id="node15" class="node">
<title>CountriesService</title>
<ellipse fill="#fdb462" stroke="#000000" cx="719" cy="-256" rx="77.5839" ry="18"/>
<text text-anchor="middle" x="719" y="-251.8" font-family="Times,serif" font-size="14.00" fill="#000000">CountriesService</text>
</g>
<!-- CountriesService&#45;&gt;AppModule -->
<g id="edge15" class="edge">
<title>CountriesService&#45;&gt;AppModule</title>
<path fill="none" stroke="#000000" d="M719,-274.2222C719,-292.8285 719,-319 719,-319 719,-319 1283.1441,-319 1283.1441,-319"/>
<polygon fill="#000000" stroke="#000000" points="1283.1441,-322.5001 1293.1441,-319 1283.1441,-315.5001 1283.1441,-322.5001"/>
</g>
<!-- CitiesService -->
<g id="node16" class="node">
<title>CitiesService</title>
<ellipse fill="#fdb462" stroke="#000000" cx="561" cy="-256" rx="62.5508" ry="18"/>
<text text-anchor="middle" x="561" y="-251.8" font-family="Times,serif" font-size="14.00" fill="#000000">CitiesService</text>
</g>
<!-- CitiesService&#45;&gt;AppModule -->
<g id="edge16" class="edge">
<title>CitiesService&#45;&gt;AppModule</title>
<path fill="none" stroke="#000000" d="M561,-274.2228C561,-294.3652 561,-324 561,-324 561,-324 1283.112,-324 1283.112,-324"/>
<polygon fill="#000000" stroke="#000000" points="1283.112,-327.5001 1293.112,-324 1283.1119,-320.5001 1283.112,-327.5001"/>
</g>
<!-- CoursesService -->
<g id="node17" class="node">
<title>CoursesService</title>
<ellipse fill="#fdb462" stroke="#000000" cx="1417" cy="-256" rx="71.2036" ry="18"/>
<text text-anchor="middle" x="1417" y="-251.8" font-family="Times,serif" font-size="14.00" fill="#000000">CoursesService</text>
</g>
<!-- CoursesService&#45;&gt;AppModule -->
<g id="edge17" class="edge">
<title>CoursesService&#45;&gt;AppModule</title>
<path fill="none" stroke="#000000" d="M1361.3632,-267.3221C1361.3632,-267.3221 1361.3632,-292.9424 1361.3632,-292.9424"/>
<polygon fill="#000000" stroke="#000000" points="1357.8633,-292.9424 1361.3632,-302.9424 1364.8633,-292.9425 1357.8633,-292.9424"/>
</g>
<!-- FacultiesService -->
<g id="node18" class="node">
<title>FacultiesService</title>
<ellipse fill="#fdb462" stroke="#000000" cx="1253" cy="-256" rx="74.7111" ry="18"/>
<text text-anchor="middle" x="1253" y="-251.8" font-family="Times,serif" font-size="14.00" fill="#000000">FacultiesService</text>
</g>
<!-- FacultiesService&#45;&gt;AppModule -->
<g id="edge18" class="edge">
<title>FacultiesService&#45;&gt;AppModule</title>
<path fill="none" stroke="#000000" d="M1310.5136,-267.6207C1310.5136,-267.6207 1310.5136,-292.8534 1310.5136,-292.8534"/>
<polygon fill="#000000" stroke="#000000" points="1307.0137,-292.8533 1310.5136,-302.8534 1314.0137,-292.8534 1307.0137,-292.8533"/>
</g>
<!-- ProgramsService -->
<g id="node19" class="node">
<title>ProgramsService</title>
<ellipse fill="#fdb462" stroke="#000000" cx="1083" cy="-256" rx="77.0023" ry="18"/>
<text text-anchor="middle" x="1083" y="-251.8" font-family="Times,serif" font-size="14.00" fill="#000000">ProgramsService</text>
</g>
<!-- ProgramsService&#45;&gt;AppModule -->
<g id="edge19" class="edge">
<title>ProgramsService&#45;&gt;AppModule</title>
<path fill="none" stroke="#000000" d="M1083,-274.2396C1083,-289.5706 1083,-309 1083,-309 1083,-309 1283.1044,-309 1283.1044,-309"/>
<polygon fill="#000000" stroke="#000000" points="1283.1045,-312.5001 1293.1044,-309 1283.1044,-305.5001 1283.1045,-312.5001"/>
</g>
<!-- UniversitiesService -->
<g id="node20" class="node">
<title>UniversitiesService</title>
<ellipse fill="#fdb462" stroke="#000000" cx="901" cy="-256" rx="86.8088" ry="18"/>
<text text-anchor="middle" x="901" y="-251.8" font-family="Times,serif" font-size="14.00" fill="#000000">UniversitiesService</text>
</g>
<!-- UniversitiesService&#45;&gt;AppModule -->
<g id="edge20" class="edge">
<title>UniversitiesService&#45;&gt;AppModule</title>
<path fill="none" stroke="#000000" d="M901,-274.0336C901,-291.0597 901,-314 901,-314 901,-314 1282.9919,-314 1282.9919,-314"/>
<polygon fill="#000000" stroke="#000000" points="1282.9919,-317.5001 1292.9919,-314 1282.9919,-310.5001 1282.9919,-317.5001"/>
</g>
<!-- ComparatorComponent -->
<g id="node21" class="node">
<title>ComparatorComponent</title>
<polygon fill="#ffffb3" stroke="#000000" points="2488.2007,-122 2339.7993,-122 2339.7993,-86 2488.2007,-86 2488.2007,-122"/>
<text text-anchor="middle" x="2414" y="-99.8" font-family="Times,serif" font-size="14.00" fill="#000000">ComparatorComponent</text>
</g>
<!-- ComparatorComponent&#45;&gt;ComparatorModule -->
<g id="edge21" class="edge">
<title>ComparatorComponent&#45;&gt;ComparatorModule</title>
<path fill="none" stroke="#000000" d="M2425.0697,-122.0109C2425.0697,-122.0109 2425.0697,-151.855 2425.0697,-151.855"/>
<polygon fill="#000000" stroke="#000000" points="2421.5698,-151.8549 2425.0697,-161.855 2428.5698,-151.855 2421.5698,-151.8549"/>
</g>
<!-- ComparatorModule&#45;&gt;CoreModule -->
<g id="edge30" class="edge">
<title>ComparatorModule&#45;&gt;CoreModule</title>
<path fill="none" stroke="#000000" d="M2382.9303,-198.2819C2382.9303,-213.9478 2382.9303,-234 2382.9303,-234 2382.9303,-234 1589.7046,-234 1589.7046,-234 1589.7046,-234 1589.7046,-234.3832 1589.7046,-234.3832"/>
<polygon fill="#000000" stroke="#000000" points="1586.2049,-227.832 1589.7046,-237.8321 1593.2049,-227.8322 1586.2049,-227.832"/>
</g>
<!-- ComparatorComponent  -->
<g id="node23" class="node">
<title>ComparatorComponent </title>
<polygon fill="#fb8072" stroke="#000000" points="2491.7009,-274 2340.2991,-274 2340.2991,-238 2491.7009,-238 2491.7009,-274"/>
<text text-anchor="middle" x="2416" y="-251.8" font-family="Times,serif" font-size="14.00" fill="#000000">ComparatorComponent </text>
</g>
<!-- ComparatorModule&#45;&gt;ComparatorComponent  -->
<g id="edge23" class="edge">
<title>ComparatorModule&#45;&gt;ComparatorComponent </title>
<path fill="none" stroke="#000000" stroke-dasharray="5,2" d="M2425.0697,-198.0109C2425.0697,-198.0109 2425.0697,-227.855 2425.0697,-227.855"/>
<polygon fill="#000000" stroke="#000000" points="2421.5698,-227.8549 2425.0697,-237.855 2428.5698,-227.855 2421.5698,-227.8549"/>
</g>
<!-- CoreComponent -->
<g id="node24" class="node">
<title>CoreComponent</title>
<polygon fill="#ffffb3" stroke="#000000" points="1957.0452,-198 1848.9548,-198 1848.9548,-162 1957.0452,-162 1957.0452,-198"/>
<text text-anchor="middle" x="1903" y="-175.8" font-family="Times,serif" font-size="14.00" fill="#000000">CoreComponent</text>
</g>
<!-- CoreComponent&#45;&gt;CoreModule -->
<g id="edge24" class="edge">
<title>CoreComponent&#45;&gt;CoreModule</title>
<path fill="none" stroke="#000000" d="M1859.5838,-198.0511C1859.5838,-212.373 1859.5838,-230 1859.5838,-230 1859.5838,-230 1581.0285,-230 1581.0285,-230 1581.0285,-230 1581.0285,-230.7942 1581.0285,-230.7942"/>
<polygon fill="#000000" stroke="#000000" points="1577.5286,-227.9421 1581.0285,-237.9421 1584.5286,-227.9422 1577.5286,-227.9421"/>
</g>
<!-- ResultCardsComponent -->
<g id="node25" class="node">
<title>ResultCardsComponent</title>
<polygon fill="#ffffb3" stroke="#000000" points="1830.766,-198 1681.234,-198 1681.234,-162 1830.766,-162 1830.766,-198"/>
<text text-anchor="middle" x="1756" y="-175.8" font-family="Times,serif" font-size="14.00" fill="#000000">ResultCardsComponent</text>
</g>
<!-- ResultCardsComponent&#45;&gt;CoreModule -->
<g id="edge25" class="edge">
<title>ResultCardsComponent&#45;&gt;CoreModule</title>
<path fill="none" stroke="#000000" d="M1704.4183,-198.0439C1704.4183,-210.5633 1704.4183,-225 1704.4183,-225 1704.4183,-225 1572.3523,-225 1572.3523,-225 1572.3523,-225 1572.3523,-227.9672 1572.3523,-227.9672"/>
<polygon fill="#000000" stroke="#000000" points="1568.8524,-227.9671 1572.3523,-237.9672 1575.8524,-227.9672 1568.8524,-227.9671"/>
</g>
<!-- ResultCardsComparatorComponent -->
<g id="node26" class="node">
<title>ResultCardsComparatorComponent</title>
<polygon fill="#ffffb3" stroke="#000000" points="1663.1343,-198 1446.8657,-198 1446.8657,-162 1663.1343,-162 1663.1343,-198"/>
<text text-anchor="middle" x="1555" y="-175.8" font-family="Times,serif" font-size="14.00" fill="#000000">ResultCardsComparatorComponent</text>
</g>
<!-- ResultCardsComparatorComponent&#45;&gt;CoreModule -->
<g id="edge26" class="edge">
<title>ResultCardsComparatorComponent&#45;&gt;CoreModule</title>
<path fill="none" stroke="#000000" d="M1563.6762,-198.0109C1563.6762,-198.0109 1563.6762,-227.855 1563.6762,-227.855"/>
<polygon fill="#000000" stroke="#000000" points="1560.1763,-227.8549 1563.6762,-237.855 1567.1763,-227.855 1560.1763,-227.8549"/>
</g>
<!-- CourseDialogComponent -->
<g id="node27" class="node">
<title>CourseDialogComponent</title>
<polygon fill="#ffffb3" stroke="#000000" points="1428.5912,-198 1269.4088,-198 1269.4088,-162 1428.5912,-162 1428.5912,-198"/>
<text text-anchor="middle" x="1349" y="-175.8" font-family="Times,serif" font-size="14.00" fill="#000000">CourseDialogComponent</text>
</g>
<!-- CourseDialogComponent&#45;&gt;CoreModule -->
<g id="edge27" class="edge">
<title>CourseDialogComponent&#45;&gt;CoreModule</title>
<path fill="none" stroke="#000000" d="M1387.2219,-198.1223C1387.2219,-200.9729 1387.2219,-203 1387.2219,-203 1387.2219,-203 1555,-203 1555,-203 1555,-203 1555,-227.7604 1555,-227.7604"/>
<polygon fill="#000000" stroke="#000000" points="1551.5001,-227.7604 1555,-237.7604 1558.5001,-227.7604 1551.5001,-227.7604"/>
</g>
<!-- ExplorerModule&#45;&gt;CoreModule -->
<g id="edge29" class="edge">
<title>ExplorerModule&#45;&gt;CoreModule</title>
<path fill="none" stroke="#000000" d="M1211.7045,-198.1592C1211.7045,-203.0433 1211.7045,-207 1211.7045,-207 1211.7045,-207 1546.3238,-207 1546.3238,-207 1546.3238,-207 1546.3238,-227.7542 1546.3238,-227.7542"/>
<polygon fill="#000000" stroke="#000000" points="1542.8239,-227.7542 1546.3238,-237.7542 1549.8239,-227.7542 1542.8239,-227.7542"/>
</g>
<!-- ExplorerComponent  -->
<g id="node32" class="node">
<title>ExplorerComponent </title>
<polygon fill="#fb8072" stroke="#000000" points="1087.8115,-122 954.1885,-122 954.1885,-86 1087.8115,-86 1087.8115,-122"/>
<text text-anchor="middle" x="1021" y="-99.8" font-family="Times,serif" font-size="14.00" fill="#000000">ExplorerComponent </text>
</g>
<!-- ExplorerModule&#45;&gt;ExplorerComponent  -->
<g id="edge36" class="edge">
<title>ExplorerModule&#45;&gt;ExplorerComponent </title>
<path fill="none" stroke="#000000" stroke-dasharray="5,2" d="M1180.1471,-161.9445C1180.1471,-150.561 1180.1471,-138 1180.1471,-138 1180.1471,-138 1044.4418,-138 1044.4418,-138 1044.4418,-138 1044.4418,-132.1944 1044.4418,-132.1944"/>
<polygon fill="#000000" stroke="#000000" points="1047.9419,-132.1944 1044.4418,-122.1944 1040.9419,-132.1945 1047.9419,-132.1944"/>
</g>
<!-- ExplorerComponent -->
<g id="node30" class="node">
<title>ExplorerComponent</title>
<polygon fill="#ffffb3" stroke="#000000" points="1418.3118,-122 1287.6882,-122 1287.6882,-86 1418.3118,-86 1418.3118,-122"/>
<text text-anchor="middle" x="1353" y="-99.8" font-family="Times,serif" font-size="14.00" fill="#000000">ExplorerComponent</text>
</g>
<!-- ExplorerComponent&#45;&gt;ExplorerModule -->
<g id="edge33" class="edge">
<title>ExplorerComponent&#45;&gt;ExplorerModule</title>
<path fill="none" stroke="#000000" d="M1353,-122.0511C1353,-136.373 1353,-154 1353,-154 1353,-154 1223.5586,-154 1223.5586,-154 1223.5586,-154 1223.5586,-154.7942 1223.5586,-154.7942"/>
<polygon fill="#000000" stroke="#000000" points="1220.0588,-151.9421 1223.5586,-161.9421 1227.0588,-151.9422 1220.0588,-151.9421"/>
</g>
<!-- SearchDialogComponent -->
<g id="node31" class="node">
<title>SearchDialogComponent</title>
<polygon fill="#ffffb3" stroke="#000000" points="1269.5225,-122 1112.4775,-122 1112.4775,-86 1269.5225,-86 1269.5225,-122"/>
<text text-anchor="middle" x="1191" y="-99.8" font-family="Times,serif" font-size="14.00" fill="#000000">SearchDialogComponent</text>
</g>
<!-- SearchDialogComponent&#45;&gt;ExplorerModule -->
<g id="edge34" class="edge">
<title>SearchDialogComponent&#45;&gt;ExplorerModule</title>
<path fill="none" stroke="#000000" d="M1201.8529,-122.0109C1201.8529,-122.0109 1201.8529,-151.855 1201.8529,-151.855"/>
<polygon fill="#000000" stroke="#000000" points="1198.353,-151.8549 1201.8529,-161.855 1205.353,-151.855 1198.353,-151.8549"/>
</g>
</g>
</svg>
