<?xml version="1.0" encoding="UTF-8" standalone="no"?>
<!DOCTYPE svg PUBLIC "-//W3C//DTD SVG 1.1//EN"
 "http://www.w3.org/Graphics/SVG/1.1/DTD/svg11.dtd">
<!-- Generated by graphviz version 2.40.1 (20161225.0304)
 -->
<!-- Title: dependencies Pages: 1 -->
<svg width="1352pt" height="284pt"
 viewBox="0.00 0.00 1352.00 284.00" xmlns="http://www.w3.org/2000/svg" xmlns:xlink="http://www.w3.org/1999/xlink">
<g id="graph0" class="graph" transform="scale(1 1) rotate(0) translate(4 280)">
<title>dependencies</title>
<polygon fill="#ffffff" stroke="transparent" points="-4,4 -4,-280 1348,-280 1348,4 -4,4"/>
<text text-anchor="start" x="651.0091" y="-42.4" font-family="sans-serif" font-weight="bold" font-size="14.00" fill="#000000">Legend</text>
<polygon fill="#ffffb3" stroke="transparent" points="438,-10 438,-30 458,-30 458,-10 438,-10"/>
<text text-anchor="start" x="461.629" y="-15.4" font-family="sans-serif" font-size="14.00" fill="#000000"> &#160;Declarations</text>
<polygon fill="#8dd3c7" stroke="transparent" points="551,-10 551,-30 571,-30 571,-10 551,-10"/>
<text text-anchor="start" x="574.7251" y="-15.4" font-family="sans-serif" font-size="14.00" fill="#000000"> &#160;Module</text>
<polygon fill="#80b1d3" stroke="transparent" points="637,-10 637,-30 657,-30 657,-10 637,-10"/>
<text text-anchor="start" x="660.7812" y="-15.4" font-family="sans-serif" font-size="14.00" fill="#000000"> &#160;Bootstrap</text>
<polygon fill="#fdb462" stroke="transparent" points="734,-10 734,-30 754,-30 754,-10 734,-10"/>
<text text-anchor="start" x="757.6732" y="-15.4" font-family="sans-serif" font-size="14.00" fill="#000000"> &#160;Providers</text>
<polygon fill="#fb8072" stroke="transparent" points="830,-10 830,-30 850,-30 850,-10 830,-10"/>
<text text-anchor="start" x="853.7258" y="-15.4" font-family="sans-serif" font-size="14.00" fill="#000000"> &#160;Exports</text>
<g id="clust1" class="cluster">
<title>cluster_CoreModule</title>
<polygon fill="none" stroke="#000000" stroke-dasharray="1,5" points="8,-70 8,-268 1336,-268 1336,-70 8,-70"/>
</g>
<g id="clust2" class="cluster">
<title>cluster_CoreModule_declarations</title>
<polygon fill="none" stroke="#000000" points="624,-78 624,-130 1328,-130 1328,-78 624,-78"/>
</g>
<g id="clust7" class="cluster">
<title>cluster_CoreModule_imports</title>
<polygon fill="none" stroke="#000000" points="16,-78 16,-130 616,-130 616,-78 16,-78"/>
</g>
<g id="clust8" class="cluster">
<title>cluster_CoreModule_exports</title>
<polygon fill="none" stroke="#000000" points="558,-208 558,-260 686,-260 686,-208 558,-208"/>
</g>
<!-- CoreComponent -->
<g id="node1" class="node">
<title>CoreComponent</title>
<polygon fill="#ffffb3" stroke="#000000" points="1320.0452,-122 1211.9548,-122 1211.9548,-86 1320.0452,-86 1320.0452,-122"/>
<text text-anchor="middle" x="1266" y="-99.8" font-family="Times,serif" font-size="14.00" fill="#000000">CoreComponent</text>
</g>
<!-- CoreModule -->
<g id="node5" class="node">
<title>CoreModule</title>
<polygon fill="#8dd3c7" stroke="#000000" points="665.2619,-187 662.2619,-191 641.2619,-191 638.2619,-187 578.7381,-187 578.7381,-151 665.2619,-151 665.2619,-187"/>
<text text-anchor="middle" x="622" y="-164.8" font-family="Times,serif" font-size="14.00" fill="#000000">CoreModule</text>
</g>
<!-- CoreComponent&#45;&gt;CoreModule -->
<g id="edge1" class="edge">
<title>CoreComponent&#45;&gt;CoreModule</title>
<path fill="none" stroke="#000000" d="M1266,-122.2921C1266,-144.2057 1266,-178 1266,-178 1266,-178 675.5062,-178 675.5062,-178"/>
<polygon fill="#000000" stroke="#000000" points="675.5063,-174.5001 665.5062,-178 675.5062,-181.5001 675.5063,-174.5001"/>
</g>
<!-- ResultCardsComponent -->
<g id="node2" class="node">
<title>ResultCardsComponent</title>
<polygon fill="#ffffb3" stroke="#000000" points="1193.766,-122 1044.234,-122 1044.234,-86 1193.766,-86 1193.766,-122"/>
<text text-anchor="middle" x="1119" y="-99.8" font-family="Times,serif" font-size="14.00" fill="#000000">ResultCardsComponent</text>
</g>
<!-- ResultCardsComponent&#45;&gt;CoreModule -->
<g id="edge2" class="edge">
<title>ResultCardsComponent&#45;&gt;CoreModule</title>
<path fill="none" stroke="#000000" d="M1119,-122.1061C1119,-141.3391 1119,-169 1119,-169 1119,-169 675.6698,-169 675.6698,-169"/>
<polygon fill="#000000" stroke="#000000" points="675.6699,-165.5001 665.6698,-169 675.6698,-172.5001 675.6699,-165.5001"/>
</g>
<!-- ResultCardsComparatorComponent -->
<g id="node3" class="node">
<title>ResultCardsComparatorComponent</title>
<polygon fill="#ffffb3" stroke="#000000" points="1026.1343,-122 809.8657,-122 809.8657,-86 1026.1343,-86 1026.1343,-122"/>
<text text-anchor="middle" x="918" y="-99.8" font-family="Times,serif" font-size="14.00" fill="#000000">ResultCardsComparatorComponent</text>
</g>
<!-- ResultCardsComparatorComponent&#45;&gt;CoreModule -->
<g id="edge3" class="edge">
<title>ResultCardsComparatorComponent&#45;&gt;CoreModule</title>
<path fill="none" stroke="#000000" d="M918,-122.027C918,-138.3976 918,-160 918,-160 918,-160 675.3579,-160 675.3579,-160"/>
<polygon fill="#000000" stroke="#000000" points="675.358,-156.5001 665.3579,-160 675.3579,-163.5001 675.358,-156.5001"/>
</g>
<!-- CourseDialogComponent -->
<g id="node4" class="node">
<title>CourseDialogComponent</title>
<polygon fill="#ffffb3" stroke="#000000" points="791.5912,-122 632.4088,-122 632.4088,-86 791.5912,-86 791.5912,-122"/>
<text text-anchor="middle" x="712" y="-99.8" font-family="Times,serif" font-size="14.00" fill="#000000">CourseDialogComponent</text>
</g>
<!-- CourseDialogComponent&#45;&gt;CoreModule -->
<g id="edge4" class="edge">
<title>CourseDialogComponent&#45;&gt;CoreModule</title>
<path fill="none" stroke="#000000" d="M648.9176,-122.1061C648.9176,-122.1061 648.9176,-140.991 648.9176,-140.991"/>
<polygon fill="#000000" stroke="#000000" points="645.4177,-140.9909 648.9176,-150.991 652.4177,-140.991 645.4177,-140.9909"/>
</g>
<!-- CoreComponent  -->
<g id="node10" class="node">
<title>CoreComponent </title>
<polygon fill="#fb8072" stroke="#000000" points="678.0442,-252 565.9558,-252 565.9558,-216 678.0442,-216 678.0442,-252"/>
<text text-anchor="middle" x="622" y="-229.8" font-family="Times,serif" font-size="14.00" fill="#000000">CoreComponent </text>
</g>
<!-- CoreModule&#45;&gt;CoreComponent  -->
<g id="edge9" class="edge">
<title>CoreModule&#45;&gt;CoreComponent </title>
<path fill="none" stroke="#000000" stroke-dasharray="5,2" d="M622,-187.1061C622,-187.1061 622,-205.991 622,-205.991"/>
<polygon fill="#000000" stroke="#000000" points="618.5001,-205.9909 622,-215.991 625.5001,-205.991 618.5001,-205.9909"/>
</g>
<!-- AngularMaterialModule -->
<g id="node6" class="node">
<title>AngularMaterialModule</title>
<polygon fill="#8dd3c7" stroke="#000000" points="608.3431,-122 605.3431,-126 584.3431,-126 581.3431,-122 455.6569,-122 455.6569,-86 608.3431,-86 608.3431,-122"/>
<text text-anchor="middle" x="532" y="-99.8" font-family="Times,serif" font-size="14.00" fill="#000000">AngularMaterialModule</text>
</g>
<!-- AngularMaterialModule&#45;&gt;CoreModule -->
<g id="edge5" class="edge">
<title>AngularMaterialModule&#45;&gt;CoreModule</title>
<path fill="none" stroke="#000000" d="M593.5204,-122.1061C593.5204,-122.1061 593.5204,-140.991 593.5204,-140.991"/>
<polygon fill="#000000" stroke="#000000" points="590.0204,-140.9909 593.5204,-150.991 597.0204,-140.991 590.0204,-140.9909"/>
</g>
<!-- ExplorerModule -->
<g id="node7" class="node">
<title>ExplorerModule</title>
<polygon fill="#8dd3c7" stroke="#000000" points="437.0298,-122 434.0298,-126 413.0298,-126 410.0298,-122 328.9702,-122 328.9702,-86 437.0298,-86 437.0298,-122"/>
<text text-anchor="middle" x="383" y="-99.8" font-family="Times,serif" font-size="14.00" fill="#000000">ExplorerModule</text>
</g>
<!-- ExplorerModule&#45;&gt;CoreModule -->
<g id="edge6" class="edge">
<title>ExplorerModule&#45;&gt;CoreModule</title>
<path fill="none" stroke="#000000" d="M383,-122.027C383,-138.3976 383,-160 383,-160 383,-160 568.7189,-160 568.7189,-160"/>
<polygon fill="#000000" stroke="#000000" points="568.7189,-163.5001 578.7189,-160 568.7189,-156.5001 568.7189,-163.5001"/>
</g>
<!-- ComparatorModule -->
<g id="node8" class="node">
<title>ComparatorModule</title>
<polygon fill="#8dd3c7" stroke="#000000" points="311.4187,-122 308.4187,-126 287.4187,-126 284.4187,-122 184.5813,-122 184.5813,-86 311.4187,-86 311.4187,-122"/>
<text text-anchor="middle" x="248" y="-99.8" font-family="Times,serif" font-size="14.00" fill="#000000">ComparatorModule</text>
</g>
<!-- ComparatorModule&#45;&gt;CoreModule -->
<g id="edge7" class="edge">
<title>ComparatorModule&#45;&gt;CoreModule</title>
<path fill="none" stroke="#000000" d="M248,-122.1061C248,-141.3391 248,-169 248,-169 248,-169 568.7321,-169 568.7321,-169"/>
<polygon fill="#000000" stroke="#000000" points="568.7321,-172.5001 578.7321,-169 568.732,-165.5001 568.7321,-172.5001"/>
</g>
<!-- AlwayspresentModule -->
<g id="node9" class="node">
<title>AlwayspresentModule</title>
<polygon fill="#8dd3c7" stroke="#000000" points="166.238,-122 163.238,-126 142.238,-126 139.238,-122 23.762,-122 23.762,-86 166.238,-86 166.238,-122"/>
<text text-anchor="middle" x="95" y="-99.8" font-family="Times,serif" font-size="14.00" fill="#000000">AlwayspresentModule</text>
</g>
<!-- AlwayspresentModule&#45;&gt;CoreModule -->
<g id="edge8" class="edge">
<title>AlwayspresentModule&#45;&gt;CoreModule</title>
<path fill="none" stroke="#000000" d="M95,-122.2921C95,-144.2057 95,-178 95,-178 95,-178 568.425,-178 568.425,-178"/>
<polygon fill="#000000" stroke="#000000" points="568.4251,-181.5001 578.425,-178 568.425,-174.5001 568.4251,-181.5001"/>
</g>
</g>
</svg>
