<?xml version="1.0" encoding="UTF-8" standalone="no"?>
<!DOCTYPE svg PUBLIC "-//W3C//DTD SVG 1.1//EN"
 "http://www.w3.org/Graphics/SVG/1.1/DTD/svg11.dtd">
<!-- Generated by graphviz version 2.40.1 (20161225.0304)
 -->
<!-- Title: dependencies Pages: 1 -->
<svg width="538pt" height="284pt"
 viewBox="0.00 0.00 538.00 284.00" xmlns="http://www.w3.org/2000/svg" xmlns:xlink="http://www.w3.org/1999/xlink">
<g id="graph0" class="graph" transform="scale(1 1) rotate(0) translate(4 280)">
<title>dependencies</title>
<polygon fill="#ffffff" stroke="transparent" points="-4,4 -4,-280 534,-280 534,4 -4,4"/>
<text text-anchor="start" x="244.0091" y="-42.4" font-family="sans-serif" font-weight="bold" font-size="14.00" fill="#000000">Legend</text>
<polygon fill="#ffffb3" stroke="transparent" points="31,-10 31,-30 51,-30 51,-10 31,-10"/>
<text text-anchor="start" x="54.629" y="-15.4" font-family="sans-serif" font-size="14.00" fill="#000000"> &#160;Declarations</text>
<polygon fill="#8dd3c7" stroke="transparent" points="144,-10 144,-30 164,-30 164,-10 144,-10"/>
<text text-anchor="start" x="167.7251" y="-15.4" font-family="sans-serif" font-size="14.00" fill="#000000"> &#160;Module</text>
<polygon fill="#80b1d3" stroke="transparent" points="230,-10 230,-30 250,-30 250,-10 230,-10"/>
<text text-anchor="start" x="253.7812" y="-15.4" font-family="sans-serif" font-size="14.00" fill="#000000"> &#160;Bootstrap</text>
<polygon fill="#fdb462" stroke="transparent" points="327,-10 327,-30 347,-30 347,-10 327,-10"/>
<text text-anchor="start" x="350.6732" y="-15.4" font-family="sans-serif" font-size="14.00" fill="#000000"> &#160;Providers</text>
<polygon fill="#fb8072" stroke="transparent" points="423,-10 423,-30 443,-30 443,-10 423,-10"/>
<text text-anchor="start" x="446.7258" y="-15.4" font-family="sans-serif" font-size="14.00" fill="#000000"> &#160;Exports</text>
<g id="clust1" class="cluster">
<title>cluster_ExplorerModule</title>
<polygon fill="none" stroke="#000000" stroke-dasharray="1,5" points="8,-70 8,-268 522,-268 522,-70 8,-70"/>
</g>
<g id="clust2" class="cluster">
<title>cluster_ExplorerModule_declarations</title>
<polygon fill="none" stroke="#000000" points="192,-78 192,-130 514,-130 514,-78 192,-78"/>
</g>
<g id="clust5" class="cluster">
<title>cluster_ExplorerModule_imports</title>
<polygon fill="none" stroke="#000000" points="16,-78 16,-130 184,-130 184,-78 16,-78"/>
</g>
<g id="clust6" class="cluster">
<title>cluster_ExplorerModule_exports</title>
<polygon fill="none" stroke="#000000" points="204,-208 204,-260 354,-260 354,-208 204,-208"/>
</g>
<!-- ExplorerComponent -->
<g id="node1" class="node">
<title>ExplorerComponent</title>
<polygon fill="#ffffb3" stroke="#000000" points="506.3118,-122 375.6882,-122 375.6882,-86 506.3118,-86 506.3118,-122"/>
<text text-anchor="middle" x="441" y="-99.8" font-family="Times,serif" font-size="14.00" fill="#000000">ExplorerComponent</text>
</g>
<!-- ExplorerModule -->
<g id="node3" class="node">
<title>ExplorerModule</title>
<polygon fill="#8dd3c7" stroke="#000000" points="333.0298,-187 330.0298,-191 309.0298,-191 306.0298,-187 224.9702,-187 224.9702,-151 333.0298,-151 333.0298,-187"/>
<text text-anchor="middle" x="279" y="-164.8" font-family="Times,serif" font-size="14.00" fill="#000000">ExplorerModule</text>
</g>
<!-- ExplorerComponent&#45;&gt;ExplorerModule -->
<g id="edge1" class="edge">
<title>ExplorerComponent&#45;&gt;ExplorerModule</title>
<path fill="none" stroke="#000000" d="M441,-122.1061C441,-141.3391 441,-169 441,-169 441,-169 343.3943,-169 343.3943,-169"/>
<polygon fill="#000000" stroke="#000000" points="343.3944,-165.5001 333.3943,-169 343.3943,-172.5001 343.3944,-165.5001"/>
</g>
<!-- SearchDialogComponent -->
<g id="node2" class="node">
<title>SearchDialogComponent</title>
<polygon fill="#ffffb3" stroke="#000000" points="357.5225,-122 200.4775,-122 200.4775,-86 357.5225,-86 357.5225,-122"/>
<text text-anchor="middle" x="279" y="-99.8" font-family="Times,serif" font-size="14.00" fill="#000000">SearchDialogComponent</text>
</g>
<!-- SearchDialogComponent&#45;&gt;ExplorerModule -->
<g id="edge2" class="edge">
<title>SearchDialogComponent&#45;&gt;ExplorerModule</title>
<path fill="none" stroke="#000000" d="M279,-122.1061C279,-122.1061 279,-140.991 279,-140.991"/>
<polygon fill="#000000" stroke="#000000" points="275.5001,-140.9909 279,-150.991 282.5001,-140.991 275.5001,-140.9909"/>
</g>
<!-- ExplorerComponent  -->
<g id="node5" class="node">
<title>ExplorerComponent </title>
<polygon fill="#fb8072" stroke="#000000" points="345.8115,-252 212.1885,-252 212.1885,-216 345.8115,-216 345.8115,-252"/>
<text text-anchor="middle" x="279" y="-229.8" font-family="Times,serif" font-size="14.00" fill="#000000">ExplorerComponent </text>
</g>
<!-- ExplorerModule&#45;&gt;ExplorerComponent  -->
<g id="edge4" class="edge">
<title>ExplorerModule&#45;&gt;ExplorerComponent </title>
<path fill="none" stroke="#000000" stroke-dasharray="5,2" d="M279,-187.1061C279,-187.1061 279,-205.991 279,-205.991"/>
<polygon fill="#000000" stroke="#000000" points="275.5001,-205.9909 279,-215.991 282.5001,-205.991 275.5001,-205.9909"/>
</g>
<!-- AngularMaterialModule -->
<g id="node4" class="node">
<title>AngularMaterialModule</title>
<polygon fill="#8dd3c7" stroke="#000000" points="176.3431,-122 173.3431,-126 152.3431,-126 149.3431,-122 23.6569,-122 23.6569,-86 176.3431,-86 176.3431,-122"/>
<text text-anchor="middle" x="100" y="-99.8" font-family="Times,serif" font-size="14.00" fill="#000000">AngularMaterialModule</text>
</g>
<!-- AngularMaterialModule&#45;&gt;ExplorerModule -->
<g id="edge3" class="edge">
<title>AngularMaterialModule&#45;&gt;ExplorerModule</title>
<path fill="none" stroke="#000000" d="M100,-122.1061C100,-141.3391 100,-169 100,-169 100,-169 214.8083,-169 214.8083,-169"/>
<polygon fill="#000000" stroke="#000000" points="214.8084,-172.5001 224.8083,-169 214.8083,-165.5001 214.8084,-172.5001"/>
</g>
</g>
</svg>
