<?xml version="1.0" encoding="UTF-8" standalone="no"?>
<!DOCTYPE svg PUBLIC "-//W3C//DTD SVG 1.1//EN"
 "http://www.w3.org/Graphics/SVG/1.1/DTD/svg11.dtd">
<!-- Generated by graphviz version 2.40.1 (20161225.0304)
 -->
<!-- Title: dependencies Pages: 1 -->
<svg width="504pt" height="284pt"
 viewBox="0.00 0.00 504.00 284.00" xmlns="http://www.w3.org/2000/svg" xmlns:xlink="http://www.w3.org/1999/xlink">
<g id="graph0" class="graph" transform="scale(1 1) rotate(0) translate(4 280)">
<title>dependencies</title>
<polygon fill="#ffffff" stroke="transparent" points="-4,4 -4,-280 500,-280 500,4 -4,4"/>
<text text-anchor="start" x="227.0091" y="-42.4" font-family="sans-serif" font-weight="bold" font-size="14.00" fill="#000000">Legend</text>
<polygon fill="#ffffb3" stroke="transparent" points="14,-10 14,-30 34,-30 34,-10 14,-10"/>
<text text-anchor="start" x="37.629" y="-15.4" font-family="sans-serif" font-size="14.00" fill="#000000"> &#160;Declarations</text>
<polygon fill="#8dd3c7" stroke="transparent" points="127,-10 127,-30 147,-30 147,-10 127,-10"/>
<text text-anchor="start" x="150.7251" y="-15.4" font-family="sans-serif" font-size="14.00" fill="#000000"> &#160;Module</text>
<polygon fill="#80b1d3" stroke="transparent" points="213,-10 213,-30 233,-30 233,-10 213,-10"/>
<text text-anchor="start" x="236.7812" y="-15.4" font-family="sans-serif" font-size="14.00" fill="#000000"> &#160;Bootstrap</text>
<polygon fill="#fdb462" stroke="transparent" points="310,-10 310,-30 330,-30 330,-10 310,-10"/>
<text text-anchor="start" x="333.6732" y="-15.4" font-family="sans-serif" font-size="14.00" fill="#000000"> &#160;Providers</text>
<polygon fill="#fb8072" stroke="transparent" points="406,-10 406,-30 426,-30 426,-10 406,-10"/>
<text text-anchor="start" x="429.7258" y="-15.4" font-family="sans-serif" font-size="14.00" fill="#000000"> &#160;Exports</text>
<g id="clust1" class="cluster">
<title>cluster_ComparatorModule</title>
<polygon fill="none" stroke="#000000" stroke-dasharray="1,5" points="70,-70 70,-268 426,-268 426,-70 70,-70"/>
</g>
<g id="clust2" class="cluster">
<title>cluster_ComparatorModule_declarations</title>
<polygon fill="none" stroke="#000000" points="254,-78 254,-130 418,-130 418,-78 254,-78"/>
</g>
<g id="clust4" class="cluster">
<title>cluster_ComparatorModule_imports</title>
<polygon fill="none" stroke="#000000" points="78,-78 78,-130 246,-130 246,-78 78,-78"/>
</g>
<g id="clust5" class="cluster">
<title>cluster_ComparatorModule_exports</title>
<polygon fill="none" stroke="#000000" points="164,-208 164,-260 332,-260 332,-208 164,-208"/>
</g>
<!-- ComparatorComponent -->
<g id="node1" class="node">
<title>ComparatorComponent</title>
<polygon fill="#ffffb3" stroke="#000000" points="410.2007,-122 261.7993,-122 261.7993,-86 410.2007,-86 410.2007,-122"/>
<text text-anchor="middle" x="336" y="-99.8" font-family="Times,serif" font-size="14.00" fill="#000000">ComparatorComponent</text>
</g>
<!-- ComparatorModule -->
<g id="node2" class="node">
<title>ComparatorModule</title>
<polygon fill="#8dd3c7" stroke="#000000" points="311.4187,-187 308.4187,-191 287.4187,-191 284.4187,-187 184.5813,-187 184.5813,-151 311.4187,-151 311.4187,-187"/>
<text text-anchor="middle" x="248" y="-164.8" font-family="Times,serif" font-size="14.00" fill="#000000">ComparatorModule</text>
</g>
<!-- ComparatorComponent&#45;&gt;ComparatorModule -->
<g id="edge1" class="edge">
<title>ComparatorComponent&#45;&gt;ComparatorModule</title>
<path fill="none" stroke="#000000" d="M286.5544,-122.1061C286.5544,-122.1061 286.5544,-140.991 286.5544,-140.991"/>
<polygon fill="#000000" stroke="#000000" points="283.0544,-140.9909 286.5544,-150.991 290.0544,-140.991 283.0544,-140.9909"/>
</g>
<!-- ComparatorComponent  -->
<g id="node4" class="node">
<title>ComparatorComponent </title>
<polygon fill="#fb8072" stroke="#000000" points="323.7009,-252 172.2991,-252 172.2991,-216 323.7009,-216 323.7009,-252"/>
<text text-anchor="middle" x="248" y="-229.8" font-family="Times,serif" font-size="14.00" fill="#000000">ComparatorComponent </text>
</g>
<!-- ComparatorModule&#45;&gt;ComparatorComponent  -->
<g id="edge3" class="edge">
<title>ComparatorModule&#45;&gt;ComparatorComponent </title>
<path fill="none" stroke="#000000" stroke-dasharray="5,2" d="M248,-187.1061C248,-187.1061 248,-205.991 248,-205.991"/>
<polygon fill="#000000" stroke="#000000" points="244.5001,-205.9909 248,-215.991 251.5001,-205.991 244.5001,-205.9909"/>
</g>
<!-- AngularMaterialModule -->
<g id="node3" class="node">
<title>AngularMaterialModule</title>
<polygon fill="#8dd3c7" stroke="#000000" points="238.3431,-122 235.3431,-126 214.3431,-126 211.3431,-122 85.6569,-122 85.6569,-86 238.3431,-86 238.3431,-122"/>
<text text-anchor="middle" x="162" y="-99.8" font-family="Times,serif" font-size="14.00" fill="#000000">AngularMaterialModule</text>
</g>
<!-- AngularMaterialModule&#45;&gt;ComparatorModule -->
<g id="edge2" class="edge">
<title>AngularMaterialModule&#45;&gt;ComparatorModule</title>
<path fill="none" stroke="#000000" d="M211.6063,-122.1061C211.6063,-122.1061 211.6063,-140.991 211.6063,-140.991"/>
<polygon fill="#000000" stroke="#000000" points="208.1063,-140.9909 211.6063,-150.991 215.1063,-140.991 208.1063,-140.9909"/>
</g>
</g>
</svg>
