<?xml version="1.0" encoding="UTF-8" standalone="no"?>
<!DOCTYPE svg PUBLIC "-//W3C//DTD SVG 1.1//EN"
 "http://www.w3.org/Graphics/SVG/1.1/DTD/svg11.dtd">
<!-- Generated by graphviz version 2.40.1 (20161225.0304)
 -->
<!-- Title: dependencies Pages: 1 -->
<svg width="504pt" height="284pt"
 viewBox="0.00 0.00 504.00 284.00" xmlns="http://www.w3.org/2000/svg" xmlns:xlink="http://www.w3.org/1999/xlink">
<g id="graph0" class="graph" transform="scale(1 1) rotate(0) translate(4 280)">
<title>dependencies</title>
<polygon fill="#ffffff" stroke="transparent" points="-4,4 -4,-280 500,-280 500,4 -4,4"/>
<text text-anchor="start" x="227.0091" y="-42.4" font-family="sans-serif" font-weight="bold" font-size="14.00" fill="#000000">Legend</text>
<polygon fill="#ffffb3" stroke="transparent" points="14,-10 14,-30 34,-30 34,-10 14,-10"/>
<text text-anchor="start" x="37.629" y="-15.4" font-family="sans-serif" font-size="14.00" fill="#000000"> &#160;Declarations</text>
<polygon fill="#8dd3c7" stroke="transparent" points="127,-10 127,-30 147,-30 147,-10 127,-10"/>
<text text-anchor="start" x="150.7251" y="-15.4" font-family="sans-serif" font-size="14.00" fill="#000000"> &#160;Module</text>
<polygon fill="#80b1d3" stroke="transparent" points="213,-10 213,-30 233,-30 233,-10 213,-10"/>
<text text-anchor="start" x="236.7812" y="-15.4" font-family="sans-serif" font-size="14.00" fill="#000000"> &#160;Bootstrap</text>
<polygon fill="#fdb462" stroke="transparent" points="310,-10 310,-30 330,-30 330,-10 310,-10"/>
<text text-anchor="start" x="333.6732" y="-15.4" font-family="sans-serif" font-size="14.00" fill="#000000"> &#160;Providers</text>
<polygon fill="#fb8072" stroke="transparent" points="406,-10 406,-30 426,-30 426,-10 406,-10"/>
<text text-anchor="start" x="429.7258" y="-15.4" font-family="sans-serif" font-size="14.00" fill="#000000"> &#160;Exports</text>
<g id="clust1" class="cluster">
<title>cluster_AlwayspresentModule</title>
<polygon fill="none" stroke="#000000" stroke-dasharray="1,5" points="15,-70 15,-268 481,-268 481,-70 15,-70"/>
</g>
<g id="clust2" class="cluster">
<title>cluster_AlwayspresentModule_declarations</title>
<polygon fill="none" stroke="#000000" points="199,-78 199,-130 473,-130 473,-78 199,-78"/>
</g>
<g id="clust5" class="cluster">
<title>cluster_AlwayspresentModule_imports</title>
<polygon fill="none" stroke="#000000" points="23,-78 23,-130 191,-130 191,-78 23,-78"/>
</g>
<g id="clust6" class="cluster">
<title>cluster_AlwayspresentModule_exports</title>
<polygon fill="none" stroke="#000000" points="123,-208 123,-260 405,-260 405,-208 123,-208"/>
</g>
<!-- NavbarComponent -->
<g id="node1" class="node">
<title>NavbarComponent</title>
<polygon fill="#ffffb3" stroke="#000000" points="465.0297,-122 342.9703,-122 342.9703,-86 465.0297,-86 465.0297,-122"/>
<text text-anchor="middle" x="404" y="-99.8" font-family="Times,serif" font-size="14.00" fill="#000000">NavbarComponent</text>
</g>
<!-- AlwayspresentModule -->
<g id="node3" class="node">
<title>AlwayspresentModule</title>
<polygon fill="#8dd3c7" stroke="#000000" points="337.238,-187 334.238,-191 313.238,-191 310.238,-187 194.762,-187 194.762,-151 337.238,-151 337.238,-187"/>
<text text-anchor="middle" x="266" y="-164.8" font-family="Times,serif" font-size="14.00" fill="#000000">AlwayspresentModule</text>
</g>
<!-- NavbarComponent&#45;&gt;AlwayspresentModule -->
<g id="edge1" class="edge">
<title>NavbarComponent&#45;&gt;AlwayspresentModule</title>
<path fill="none" stroke="#000000" d="M342.8585,-104C335.8509,-104 331.1547,-104 331.1547,-104 331.1547,-104 331.1547,-140.8939 331.1547,-140.8939"/>
<polygon fill="#000000" stroke="#000000" points="327.6547,-140.8938 331.1547,-150.8939 334.6547,-140.8939 327.6547,-140.8938"/>
</g>
<!-- FooterComponent -->
<g id="node2" class="node">
<title>FooterComponent</title>
<polygon fill="#ffffb3" stroke="#000000" points="324.8809,-122 207.1191,-122 207.1191,-86 324.8809,-86 324.8809,-122"/>
<text text-anchor="middle" x="266" y="-99.8" font-family="Times,serif" font-size="14.00" fill="#000000">FooterComponent</text>
</g>
<!-- FooterComponent&#45;&gt;AlwayspresentModule -->
<g id="edge2" class="edge">
<title>FooterComponent&#45;&gt;AlwayspresentModule</title>
<path fill="none" stroke="#000000" d="M266,-122.1061C266,-122.1061 266,-140.991 266,-140.991"/>
<polygon fill="#000000" stroke="#000000" points="262.5001,-140.9909 266,-150.991 269.5001,-140.991 262.5001,-140.9909"/>
</g>
<!-- NavbarComponent  -->
<g id="node5" class="node">
<title>NavbarComponent </title>
<polygon fill="#fb8072" stroke="#000000" points="397.0288,-252 270.9712,-252 270.9712,-216 397.0288,-216 397.0288,-252"/>
<text text-anchor="middle" x="334" y="-229.8" font-family="Times,serif" font-size="14.00" fill="#000000">NavbarComponent </text>
</g>
<!-- AlwayspresentModule&#45;&gt;NavbarComponent  -->
<g id="edge4" class="edge">
<title>AlwayspresentModule&#45;&gt;NavbarComponent </title>
<path fill="none" stroke="#000000" stroke-dasharray="5,2" d="M304.1773,-187.1061C304.1773,-187.1061 304.1773,-205.991 304.1773,-205.991"/>
<polygon fill="#000000" stroke="#000000" points="300.6773,-205.9909 304.1773,-215.991 307.6773,-205.991 300.6773,-205.9909"/>
</g>
<!-- FooterComponent  -->
<g id="node6" class="node">
<title>FooterComponent </title>
<polygon fill="#fb8072" stroke="#000000" points="252.8814,-252 131.1186,-252 131.1186,-216 252.8814,-216 252.8814,-252"/>
<text text-anchor="middle" x="192" y="-229.8" font-family="Times,serif" font-size="14.00" fill="#000000">FooterComponent </text>
</g>
<!-- AlwayspresentModule&#45;&gt;FooterComponent  -->
<g id="edge5" class="edge">
<title>AlwayspresentModule&#45;&gt;FooterComponent </title>
<path fill="none" stroke="#000000" stroke-dasharray="5,2" d="M223.6608,-187.1061C223.6608,-187.1061 223.6608,-205.991 223.6608,-205.991"/>
<polygon fill="#000000" stroke="#000000" points="220.1608,-205.9909 223.6608,-215.991 227.1608,-205.991 220.1608,-205.9909"/>
</g>
<!-- AngularMaterialModule -->
<g id="node4" class="node">
<title>AngularMaterialModule</title>
<polygon fill="#8dd3c7" stroke="#000000" points="183.3431,-122 180.3431,-126 159.3431,-126 156.3431,-122 30.6569,-122 30.6569,-86 183.3431,-86 183.3431,-122"/>
<text text-anchor="middle" x="107" y="-99.8" font-family="Times,serif" font-size="14.00" fill="#000000">AngularMaterialModule</text>
</g>
<!-- AngularMaterialModule&#45;&gt;AlwayspresentModule -->
<g id="edge3" class="edge">
<title>AngularMaterialModule&#45;&gt;AlwayspresentModule</title>
<path fill="none" stroke="#000000" d="M183.6327,-104C193.8287,-104 200.8454,-104 200.8454,-104 200.8454,-104 200.8454,-140.8939 200.8454,-140.8939"/>
<polygon fill="#000000" stroke="#000000" points="197.3454,-140.8938 200.8454,-150.8939 204.3454,-140.8939 197.3454,-140.8938"/>
</g>
</g>
</svg>
