<?xml version="1.0" encoding="UTF-8" standalone="no"?>
<!DOCTYPE svg PUBLIC "-//W3C//DTD SVG 1.1//EN"
 "http://www.w3.org/Graphics/SVG/1.1/DTD/svg11.dtd">
<!-- Generated by graphviz version 2.40.1 (20161225.0304)
 -->
<!-- Title: dependencies Pages: 1 -->
<svg width="2191pt" height="284pt"
 viewBox="0.00 0.00 2191.00 284.00" xmlns="http://www.w3.org/2000/svg" xmlns:xlink="http://www.w3.org/1999/xlink">
<g id="graph0" class="graph" transform="scale(1 1) rotate(0) translate(4 280)">
<title>dependencies</title>
<polygon fill="#ffffff" stroke="transparent" points="-4,4 -4,-280 2187,-280 2187,4 -4,4"/>
<text text-anchor="start" x="1070.5091" y="-42.4" font-family="sans-serif" font-weight="bold" font-size="14.00" fill="#000000">Legend</text>
<polygon fill="#ffffb3" stroke="transparent" points="857.5,-10 857.5,-30 877.5,-30 877.5,-10 857.5,-10"/>
<text text-anchor="start" x="881.129" y="-15.4" font-family="sans-serif" font-size="14.00" fill="#000000"> &#160;Declarations</text>
<polygon fill="#8dd3c7" stroke="transparent" points="970.5,-10 970.5,-30 990.5,-30 990.5,-10 970.5,-10"/>
<text text-anchor="start" x="994.2251" y="-15.4" font-family="sans-serif" font-size="14.00" fill="#000000"> &#160;Module</text>
<polygon fill="#80b1d3" stroke="transparent" points="1056.5,-10 1056.5,-30 1076.5,-30 1076.5,-10 1056.5,-10"/>
<text text-anchor="start" x="1080.2812" y="-15.4" font-family="sans-serif" font-size="14.00" fill="#000000"> &#160;Bootstrap</text>
<polygon fill="#fdb462" stroke="transparent" points="1153.5,-10 1153.5,-30 1173.5,-30 1173.5,-10 1153.5,-10"/>
<text text-anchor="start" x="1177.1732" y="-15.4" font-family="sans-serif" font-size="14.00" fill="#000000"> &#160;Providers</text>
<polygon fill="#fb8072" stroke="transparent" points="1249.5,-10 1249.5,-30 1269.5,-30 1269.5,-10 1249.5,-10"/>
<text text-anchor="start" x="1273.2258" y="-15.4" font-family="sans-serif" font-size="14.00" fill="#000000"> &#160;Exports</text>
<g id="clust1" class="cluster">
<title>cluster_AppModule</title>
<polygon fill="none" stroke="#000000" stroke-dasharray="1,5" points="8,-70 8,-268 2175,-268 2175,-70 8,-70"/>
</g>
<g id="clust2" class="cluster">
<title>cluster_AppModule_declarations</title>
<polygon fill="none" stroke="#000000" points="1473,-78 1473,-130 2167,-130 2167,-78 1473,-78"/>
</g>
<g id="clust8" class="cluster">
<title>cluster_AppModule_imports</title>
<polygon fill="none" stroke="#000000" points="1031,-78 1031,-130 1465,-130 1465,-78 1031,-78"/>
</g>
<g id="clust10" class="cluster">
<title>cluster_AppModule_bootstrap</title>
<polygon fill="none" stroke="#000000" points="1114,-208 1114,-260 1238,-260 1238,-208 1114,-208"/>
</g>
<g id="clust11" class="cluster">
<title>cluster_AppModule_providers</title>
<polygon fill="none" stroke="#000000" points="16,-78 16,-130 1023,-130 1023,-78 16,-78"/>
</g>
<!-- AppComponent -->
<g id="node1" class="node">
<title>AppComponent</title>
<polygon fill="#ffffb3" stroke="#000000" points="2158.9399,-122 2053.0601,-122 2053.0601,-86 2158.9399,-86 2158.9399,-122"/>
<text text-anchor="middle" x="2106" y="-99.8" font-family="Times,serif" font-size="14.00" fill="#000000">AppComponent</text>
</g>
<!-- AppModule -->
<g id="node6" class="node">
<title>AppModule</title>
<polygon fill="#8dd3c7" stroke="#000000" points="1217.6571,-187 1214.6571,-191 1193.6571,-191 1190.6571,-187 1134.3429,-187 1134.3429,-151 1217.6571,-151 1217.6571,-187"/>
<text text-anchor="middle" x="1176" y="-164.8" font-family="Times,serif" font-size="14.00" fill="#000000">AppModule</text>
</g>
<!-- AppComponent&#45;&gt;AppModule -->
<g id="edge1" class="edge">
<title>AppComponent&#45;&gt;AppModule</title>
<path fill="none" stroke="#000000" d="M2106,-122.0908C2106,-145.1328 2106,-182 2106,-182 2106,-182 1227.7669,-182 1227.7669,-182"/>
<polygon fill="#000000" stroke="#000000" points="1227.7669,-178.5001 1217.7669,-182 1227.7668,-185.5001 1227.7669,-178.5001"/>
</g>
<!-- CourseComponent -->
<g id="node2" class="node">
<title>CourseComponent</title>
<polygon fill="#ffffb3" stroke="#000000" points="2035.4888,-122 1914.5112,-122 1914.5112,-86 2035.4888,-86 2035.4888,-122"/>
<text text-anchor="middle" x="1975" y="-99.8" font-family="Times,serif" font-size="14.00" fill="#000000">CourseComponent</text>
</g>
<!-- CourseComponent&#45;&gt;AppModule -->
<g id="edge2" class="edge">
<title>CourseComponent&#45;&gt;AppModule</title>
<path fill="none" stroke="#000000" d="M1975,-122.0449C1975,-143.6623 1975,-177 1975,-177 1975,-177 1227.8327,-177 1227.8327,-177"/>
<polygon fill="#000000" stroke="#000000" points="1227.8328,-173.5001 1217.8327,-177 1227.8327,-180.5001 1227.8328,-173.5001"/>
</g>
<!-- NotFoundComponent -->
<g id="node3" class="node">
<title>NotFoundComponent</title>
<polygon fill="#ffffb3" stroke="#000000" points="1896.1122,-122 1757.8878,-122 1757.8878,-86 1896.1122,-86 1896.1122,-122"/>
<text text-anchor="middle" x="1827" y="-99.8" font-family="Times,serif" font-size="14.00" fill="#000000">NotFoundComponent</text>
</g>
<!-- NotFoundComponent&#45;&gt;AppModule -->
<g id="edge3" class="edge">
<title>NotFoundComponent&#45;&gt;AppModule</title>
<path fill="none" stroke="#000000" d="M1827,-122.2228C1827,-142.3652 1827,-172 1827,-172 1827,-172 1227.7133,-172 1227.7133,-172"/>
<polygon fill="#000000" stroke="#000000" points="1227.7133,-168.5001 1217.7133,-172 1227.7133,-175.5001 1227.7133,-168.5001"/>
</g>
<!-- AboutComponent -->
<g id="node4" class="node">
<title>AboutComponent</title>
<polygon fill="#ffffb3" stroke="#000000" points="1740.3301,-122 1623.6699,-122 1623.6699,-86 1740.3301,-86 1740.3301,-122"/>
<text text-anchor="middle" x="1682" y="-99.8" font-family="Times,serif" font-size="14.00" fill="#000000">AboutComponent</text>
</g>
<!-- AboutComponent&#45;&gt;AppModule -->
<g id="edge4" class="edge">
<title>AboutComponent&#45;&gt;AppModule</title>
<path fill="none" stroke="#000000" d="M1682,-122.2222C1682,-140.8285 1682,-167 1682,-167 1682,-167 1227.8386,-167 1227.8386,-167"/>
<polygon fill="#000000" stroke="#000000" points="1227.8386,-163.5001 1217.8386,-167 1227.8386,-170.5001 1227.8386,-163.5001"/>
</g>
<!-- ContactComponent -->
<g id="node5" class="node">
<title>ContactComponent</title>
<polygon fill="#ffffb3" stroke="#000000" points="1605.3795,-122 1480.6205,-122 1480.6205,-86 1605.3795,-86 1605.3795,-122"/>
<text text-anchor="middle" x="1543" y="-99.8" font-family="Times,serif" font-size="14.00" fill="#000000">ContactComponent</text>
</g>
<!-- ContactComponent&#45;&gt;AppModule -->
<g id="edge5" class="edge">
<title>ContactComponent&#45;&gt;AppModule</title>
<path fill="none" stroke="#000000" d="M1543,-122.0336C1543,-139.0597 1543,-162 1543,-162 1543,-162 1227.7423,-162 1227.7423,-162"/>
<polygon fill="#000000" stroke="#000000" points="1227.7423,-158.5001 1217.7423,-162 1227.7422,-165.5001 1227.7423,-158.5001"/>
</g>
<!-- AppComponent  -->
<g id="node10" class="node">
<title>AppComponent </title>
<polygon fill="#80b1d3" stroke="#000000" points="1230.439,-252 1121.561,-252 1121.561,-216 1230.439,-216 1230.439,-252"/>
<text text-anchor="middle" x="1176" y="-229.8" font-family="Times,serif" font-size="14.00" fill="#000000">AppComponent </text>
</g>
<!-- AppModule&#45;&gt;AppComponent  -->
<g id="edge9" class="edge">
<title>AppModule&#45;&gt;AppComponent </title>
<path fill="none" stroke="#000000" stroke-dasharray="1,5" d="M1176,-187.1061C1176,-187.1061 1176,-205.991 1176,-205.991"/>
<polygon fill="#000000" stroke="#000000" points="1172.5001,-205.9909 1176,-215.991 1179.5001,-205.991 1172.5001,-205.9909"/>
</g>
<!-- AngularMaterialModule -->
<g id="node7" class="node">
<title>AngularMaterialModule</title>
<polygon fill="#8dd3c7" stroke="#000000" points="1457.3431,-122 1454.3431,-126 1433.3431,-126 1430.3431,-122 1304.6569,-122 1304.6569,-86 1457.3431,-86 1457.3431,-122"/>
<text text-anchor="middle" x="1381" y="-99.8" font-family="Times,serif" font-size="14.00" fill="#000000">AngularMaterialModule</text>
</g>
<!-- AngularMaterialModule&#45;&gt;AppModule -->
<g id="edge6" class="edge">
<title>AngularMaterialModule&#45;&gt;AppModule</title>
<path fill="none" stroke="#000000" d="M1381,-122.2396C1381,-137.5706 1381,-157 1381,-157 1381,-157 1227.9795,-157 1227.9795,-157"/>
<polygon fill="#000000" stroke="#000000" points="1227.9795,-153.5001 1217.9795,-157 1227.9795,-160.5001 1227.9795,-153.5001"/>
</g>
<!-- CoreModule -->
<g id="node8" class="node">
<title>CoreModule</title>
<polygon fill="#8dd3c7" stroke="#000000" points="1286.2619,-122 1283.2619,-126 1262.2619,-126 1259.2619,-122 1199.7381,-122 1199.7381,-86 1286.2619,-86 1286.2619,-122"/>
<text text-anchor="middle" x="1243" y="-99.8" font-family="Times,serif" font-size="14.00" fill="#000000">CoreModule</text>
</g>
<!-- CoreModule&#45;&gt;AppModule -->
<g id="edge7" class="edge">
<title>CoreModule&#45;&gt;AppModule</title>
<path fill="none" stroke="#000000" d="M1208.7237,-122.1061C1208.7237,-122.1061 1208.7237,-140.991 1208.7237,-140.991"/>
<polygon fill="#000000" stroke="#000000" points="1205.2238,-140.9909 1208.7237,-150.991 1212.2238,-140.991 1205.2238,-140.9909"/>
</g>
<!-- AlwayspresentModule -->
<g id="node9" class="node">
<title>AlwayspresentModule</title>
<polygon fill="#8dd3c7" stroke="#000000" points="1181.238,-122 1178.238,-126 1157.238,-126 1154.238,-122 1038.762,-122 1038.762,-86 1181.238,-86 1181.238,-122"/>
<text text-anchor="middle" x="1110" y="-99.8" font-family="Times,serif" font-size="14.00" fill="#000000">AlwayspresentModule</text>
</g>
<!-- AlwayspresentModule&#45;&gt;AppModule -->
<g id="edge8" class="edge">
<title>AlwayspresentModule&#45;&gt;AppModule</title>
<path fill="none" stroke="#000000" d="M1157.7704,-122.1061C1157.7704,-122.1061 1157.7704,-140.991 1157.7704,-140.991"/>
<polygon fill="#000000" stroke="#000000" points="1154.2704,-140.9909 1157.7704,-150.991 1161.2704,-140.991 1154.2704,-140.9909"/>
</g>
<!-- CountriesService -->
<g id="node11" class="node">
<title>CountriesService</title>
<ellipse fill="#fdb462" stroke="#000000" cx="937" cy="-104" rx="77.5839" ry="18"/>
<text text-anchor="middle" x="937" y="-99.8" font-family="Times,serif" font-size="14.00" fill="#000000">CountriesService</text>
</g>
<!-- CountriesService&#45;&gt;AppModule -->
<g id="edge10" class="edge">
<title>CountriesService&#45;&gt;AppModule</title>
<path fill="none" stroke="#000000" d="M937,-122.2396C937,-137.5706 937,-157 937,-157 937,-157 1124.0959,-157 1124.0959,-157"/>
<polygon fill="#000000" stroke="#000000" points="1124.0959,-160.5001 1134.0959,-157 1124.0959,-153.5001 1124.0959,-160.5001"/>
</g>
<!-- CitiesService -->
<g id="node12" class="node">
<title>CitiesService</title>
<ellipse fill="#fdb462" stroke="#000000" cx="779" cy="-104" rx="62.5508" ry="18"/>
<text text-anchor="middle" x="779" y="-99.8" font-family="Times,serif" font-size="14.00" fill="#000000">CitiesService</text>
</g>
<!-- CitiesService&#45;&gt;AppModule -->
<g id="edge11" class="edge">
<title>CitiesService&#45;&gt;AppModule</title>
<path fill="none" stroke="#000000" d="M779,-122.0336C779,-139.0597 779,-162 779,-162 779,-162 1124.2644,-162 1124.2644,-162"/>
<polygon fill="#000000" stroke="#000000" points="1124.2644,-165.5001 1134.2644,-162 1124.2644,-158.5001 1124.2644,-165.5001"/>
</g>
<!-- CoursesService -->
<g id="node13" class="node">
<title>CoursesService</title>
<ellipse fill="#fdb462" stroke="#000000" cx="627" cy="-104" rx="71.2036" ry="18"/>
<text text-anchor="middle" x="627" y="-99.8" font-family="Times,serif" font-size="14.00" fill="#000000">CoursesService</text>
</g>
<!-- CoursesService&#45;&gt;AppModule -->
<g id="edge12" class="edge">
<title>CoursesService&#45;&gt;AppModule</title>
<path fill="none" stroke="#000000" d="M627,-122.2222C627,-140.8285 627,-167 627,-167 627,-167 1124.2852,-167 1124.2852,-167"/>
<polygon fill="#000000" stroke="#000000" points="1124.2852,-170.5001 1134.2852,-167 1124.2851,-163.5001 1124.2852,-170.5001"/>
</g>
<!-- FacultiesService -->
<g id="node14" class="node">
<title>FacultiesService</title>
<ellipse fill="#fdb462" stroke="#000000" cx="463" cy="-104" rx="74.7111" ry="18"/>
<text text-anchor="middle" x="463" y="-99.8" font-family="Times,serif" font-size="14.00" fill="#000000">FacultiesService</text>
</g>
<!-- FacultiesService&#45;&gt;AppModule -->
<g id="edge13" class="edge">
<title>FacultiesService&#45;&gt;AppModule</title>
<path fill="none" stroke="#000000" d="M463,-122.2228C463,-142.3652 463,-172 463,-172 463,-172 1124.3227,-172 1124.3227,-172"/>
<polygon fill="#000000" stroke="#000000" points="1124.3228,-175.5001 1134.3227,-172 1124.3227,-168.5001 1124.3228,-175.5001"/>
</g>
<!-- ProgramsService -->
<g id="node15" class="node">
<title>ProgramsService</title>
<ellipse fill="#fdb462" stroke="#000000" cx="293" cy="-104" rx="77.0023" ry="18"/>
<text text-anchor="middle" x="293" y="-99.8" font-family="Times,serif" font-size="14.00" fill="#000000">ProgramsService</text>
</g>
<!-- ProgramsService&#45;&gt;AppModule -->
<g id="edge14" class="edge">
<title>ProgramsService&#45;&gt;AppModule</title>
<path fill="none" stroke="#000000" d="M293,-122.0449C293,-143.6623 293,-177 293,-177 293,-177 1124.3007,-177 1124.3007,-177"/>
<polygon fill="#000000" stroke="#000000" points="1124.3008,-180.5001 1134.3007,-177 1124.3007,-173.5001 1124.3008,-180.5001"/>
</g>
<!-- UniversitiesService -->
<g id="node16" class="node">
<title>UniversitiesService</title>
<ellipse fill="#fdb462" stroke="#000000" cx="111" cy="-104" rx="86.8088" ry="18"/>
<text text-anchor="middle" x="111" y="-99.8" font-family="Times,serif" font-size="14.00" fill="#000000">UniversitiesService</text>
</g>
<!-- UniversitiesService&#45;&gt;AppModule -->
<g id="edge15" class="edge">
<title>UniversitiesService&#45;&gt;AppModule</title>
<path fill="none" stroke="#000000" d="M111,-122.0908C111,-145.1328 111,-182 111,-182 111,-182 1124.2507,-182 1124.2507,-182"/>
<polygon fill="#000000" stroke="#000000" points="1124.2508,-185.5001 1134.2507,-182 1124.2507,-178.5001 1124.2508,-185.5001"/>
</g>
</g>
</svg>
